<svg width="882" height="181" viewBox="0 0 882 181" fill="none" xmlns="http://www.w3.org/2000/svg">
<g clip-path="url(#clip0_111_27468)">
<g clip-path="url(#clip1_111_27468)">
<path d="M243.269 86.8046L236.281 33.7615H202.771V147.188H226.577V85.2711L237.311 147.188H247.342L258.076 85.2711V147.188H282.235V33.7615H250.585L243.269 86.8046Z" fill="white"/>
<path d="M304.306 33.7615L288.142 147.188H312.477L314.337 130.571H327.283L329.32 147.188H356.545L338.847 33.7615H304.306ZM316.901 108.173L320.823 73.7072L324.744 108.173H316.926H316.901Z" fill="white"/>
<mask id="mask0_111_27468" style="mask-type:luminance" maskUnits="userSpaceOnUse" x="0" y="0" width="882" height="181">
<path d="M881.369 0H0V181H881.369V0Z" fill="white"/>
</mask>
<g mask="url(#mask0_111_27468)">
<path d="M402.649 33.7615H362.478V147.188H402.8C419.317 147.188 427.989 138.968 427.989 121.119V58.7496C427.989 40.5993 418.286 33.7364 402.624 33.7364M399.381 118.505C399.381 123.231 398.2 125.368 394.102 125.368H390.181V54.7776H394.429C398.351 54.7776 399.356 56.6128 399.356 61.3389V118.505H399.381Z" fill="white"/>
<path d="M474.044 33.7615H433.872V147.188H474.194C490.711 147.188 499.384 138.968 499.384 121.119V58.7496C499.384 40.5993 489.68 33.7364 474.018 33.7364M470.775 118.505C470.775 123.231 469.594 125.368 465.496 125.368H461.575V54.7776H465.823C469.745 54.7776 470.75 56.6128 470.75 61.3389V118.505H470.775Z" fill="white"/>
<path d="M505.367 147.188H558.988V123.231H533.12V100.681H553.03V76.5982H533.12V57.2161H558.988V33.7615H505.367V147.188Z" fill="white"/>
<path d="M606.652 88.6397L592.198 33.7615H564.972V147.188H589.307V88.0364L605.974 147.188H630.66V33.7615H606.652V88.6397Z" fill="white"/>
<path d="M843.811 76.2211V56.8893H877.12V34.3146H819.753V96.4076H844.389V91.229C844.389 91.0279 844.44 90.8017 844.49 90.6006C844.842 88.3129 846.778 86.5783 849.166 86.5783C851.78 86.5783 853.892 88.69 853.892 91.3045V124.639C853.892 127.253 851.78 129.365 849.166 129.365C846.551 129.365 844.565 127.354 844.465 124.865C844.415 124.714 844.389 124.588 844.389 124.438V106.589H819.552V127.253C819.552 137.837 826.239 149.199 846.778 149.199H853.465C871.665 149.199 881.344 138.138 881.344 125.091V82.9332C881.344 64.0539 852.258 61.4394 843.786 76.1708" fill="white"/>
<path d="M784.66 32.3538H778.753C758.943 32.3538 751.628 43.3395 751.628 54.7777V72.6263H777.697V57.2161C777.697 54.3251 778.577 52.9425 781.342 52.9425C783.957 52.9425 785.163 54.3251 785.163 57.2161V63.3249C785.163 67.4476 783.781 70.3386 777.672 79.0367C774.379 83.1595 770.382 88.6397 766.711 93.6675C750.195 115.01 749.491 120.516 749.491 132.256V147.188H812.866V125.393H774.881C774.881 123.105 774.354 121.27 790.694 104.05C795.395 99.3238 799.568 94.8993 803.213 90.7765C813.822 79.3383 814.526 73.3804 814.526 61.9422V55.9843C814.526 40.725 804.093 32.3538 784.61 32.3538" fill="white"/>
<path d="M90.5 0C40.5239 0 0 40.5239 0 90.5C0 140.476 40.5239 181 90.5 181C140.476 181 181 140.476 181 90.5C181 40.5239 140.476 0 90.5 0Z" fill="white"/>
<path d="M150.029 105.055H152.342V105.458H151.412V107.418H150.959V105.458H150.029V105.055ZM42.0828 114.156H36.879C35.6975 114.156 35.1193 113.502 35.1193 112.22V110.159C35.1193 109.58 35.2701 109.103 35.597 108.701C35.8986 108.323 36.326 108.122 36.879 108.122H40.9767C41.9319 108.122 42.5856 108.575 42.8872 109.53L43.4654 111.516H47.2111V109.329C47.2111 107.871 46.7335 106.664 45.7531 105.684C44.7475 104.703 43.5408 104.226 42.1079 104.226H36.0495C34.6165 104.226 33.3847 104.729 32.354 105.759C31.3485 106.765 30.8457 107.972 30.8457 109.404V112.924C30.8457 114.357 31.3485 115.589 32.354 116.619C33.3847 117.625 34.6165 118.128 36.0495 118.128H41.2532C42.4096 118.128 42.9878 118.806 42.9878 120.114V122.778C42.9878 123.357 42.837 123.834 42.5101 124.211C42.1833 124.613 41.756 124.789 41.2532 124.789H37.1053C36.0495 124.789 35.421 124.312 35.1696 123.382L34.6165 121.144H30.8457V123.583C30.8457 125.066 31.3233 126.273 32.3038 127.228C33.2842 128.208 34.4908 128.686 35.9489 128.686H42.0828C43.5157 128.686 44.7475 128.183 45.7531 127.153C46.7586 126.147 47.2363 124.915 47.2363 123.482V119.334C47.2363 117.927 46.7335 116.695 45.7279 115.664C44.7224 114.633 43.4906 114.131 42.0828 114.131M67.0708 105.759C68.0764 106.765 68.5792 107.972 68.5792 109.379V114.508C68.5792 115.941 68.0764 117.172 67.0708 118.178C66.0401 119.183 64.8083 119.711 63.3754 119.711H56.6382V128.686H52.3143V104.251H63.3754C64.8083 104.251 66.0401 104.754 67.0708 105.784M64.2553 110.209C64.2553 109.606 64.0793 109.153 63.7525 108.776C63.4257 108.399 62.9983 108.223 62.4956 108.223H56.6131V115.815H62.4956C62.9983 115.815 63.4257 115.614 63.7525 115.237C64.0793 114.86 64.2553 114.382 64.2553 113.804V110.234V110.209ZM107.268 118.605L111.542 128.711H106.941L102.969 119.133H98.8715V128.711H94.5476V104.276H105.357C106.815 104.276 108.022 104.779 109.028 105.81C110.033 106.815 110.561 108.022 110.561 109.43V113.703C110.561 114.809 110.259 115.815 109.656 116.72C109.028 117.6 108.223 118.228 107.268 118.656M106.237 110.259C106.237 109.681 106.086 109.203 105.785 108.826C105.483 108.449 105.056 108.273 104.553 108.273H98.8967V115.262H104.553C105.056 115.262 105.458 115.086 105.785 114.709C106.086 114.332 106.237 113.854 106.237 113.276V110.259ZM113.301 108.248H119.511V128.736H123.834V108.248H130.119V104.301H113.301V108.248ZM144.499 114.206H139.295C138.138 114.206 137.56 113.552 137.56 112.27V110.209C137.56 109.631 137.711 109.153 138.038 108.751C138.34 108.374 138.792 108.173 139.32 108.173H143.418C144.373 108.173 145.027 108.625 145.328 109.58L145.881 111.566H149.627V109.379C149.627 107.921 149.124 106.715 148.144 105.734C147.138 104.754 145.932 104.276 144.499 104.276H138.465C137.032 104.276 135.775 104.779 134.795 105.81C133.789 106.815 133.262 108.022 133.262 109.455V112.974C133.262 114.407 133.789 115.639 134.795 116.67C135.801 117.675 137.032 118.178 138.465 118.178H143.669C144.825 118.178 145.404 118.857 145.404 120.164V122.829C145.404 123.407 145.253 123.884 144.951 124.262C144.624 124.664 144.197 124.84 143.669 124.84H139.521C138.49 124.84 137.837 124.362 137.585 123.432L137.032 121.195H133.262V123.633C133.262 125.116 133.764 126.323 134.72 127.278C135.725 128.259 136.907 128.736 138.365 128.736H144.473C145.932 128.736 147.138 128.233 148.169 127.203C149.174 126.197 149.677 124.965 149.677 123.533V119.385C149.677 117.977 149.174 116.745 148.119 115.714C147.113 114.684 145.881 114.181 144.473 114.181M155.132 105.081L154.202 106.513L153.272 105.081H152.87V107.444H153.272V105.986C153.272 105.986 153.222 105.835 153.222 105.734C153.272 105.81 153.322 105.91 153.373 105.96L154.152 107.142H154.227L154.982 105.986C154.982 105.986 155.057 105.835 155.082 105.734C155.082 105.86 155.082 105.935 155.082 105.986V107.444H155.509V105.081H155.158H155.132ZM87.735 105.784C88.7657 106.765 89.2685 108.022 89.2685 109.43V123.482C89.2685 124.965 88.7657 126.197 87.735 127.203C86.7043 128.233 85.5228 128.736 84.0647 128.736H78.2325C76.7745 128.736 75.5426 128.233 74.5371 127.203C73.5315 126.197 73.0036 124.965 73.0036 123.482V109.43C73.0036 108.022 73.5315 106.79 74.5371 105.81C75.5426 104.779 76.7745 104.276 78.2325 104.276H84.0647C85.5228 104.276 86.7295 104.779 87.735 105.784ZM84.9697 110.234C84.9697 109.656 84.8189 109.178 84.4669 108.801C84.1401 108.424 83.7379 108.248 83.2351 108.248H79.0872C78.5342 108.248 78.132 108.424 77.8051 108.801C77.5035 109.178 77.3526 109.656 77.3526 110.234V122.753C77.3526 123.331 77.5035 123.784 77.8051 124.186C78.132 124.588 78.5342 124.789 79.0872 124.789H83.2351C83.7379 124.789 84.1653 124.588 84.4669 124.186C84.7938 123.809 84.9697 123.331 84.9697 122.753V110.234ZM103.195 41.9065H56.6633L49.549 53.219H96.056L103.195 41.9065ZM120.818 75.8189H113.829L106.665 87.1565H127.957L135.097 98.469H148.672L112.673 41.5294L83.7631 87.1817H52.1383L59.4035 75.8692H79.0621L86.2267 64.5567H42.4096L35.245 75.8692H45.7531L31.4239 98.4942H90.3494L112.698 62.9729L120.818 75.8189Z" fill="black"/>
<path d="M736.444 34.3649C732.271 37.3564 724.277 41.454 714.02 38.915C696.222 34.5157 691.144 19.2061 691.144 19.2061C691.144 19.2061 686.041 34.5408 668.242 38.915C657.96 41.454 649.991 37.3564 645.818 34.3649H642.601V117.047C642.601 119.133 643.103 123.256 646.497 127.379C650.695 132.457 657.785 135.775 667.614 137.183C675.432 138.314 681.214 140.778 685.286 144.699C688.303 147.59 691.144 152.568 691.144 152.568C691.144 152.568 694.085 147.465 696.976 144.699C701.049 140.753 706.83 138.314 714.649 137.183C724.453 135.775 731.592 132.457 735.765 127.379C739.159 123.256 739.687 119.133 739.687 117.047V34.3649H736.469H736.444Z" fill="white"/>
<path d="M736.745 37.5826C736.745 37.5826 727.017 45.1494 713.316 41.7306C697.328 37.7335 691.118 25.7674 691.118 25.7674C691.118 25.7674 684.909 37.7335 668.921 41.7306C655.22 45.1494 645.491 37.5826 645.491 37.5826V117.022C645.491 119.737 646.623 131.175 668.016 134.267C676.462 135.499 682.772 138.214 687.297 142.563C688.931 144.121 690.163 145.73 691.118 147.188C692.074 145.73 693.28 144.146 694.939 142.563C699.464 138.188 705.774 135.499 714.221 134.267C735.614 131.175 736.745 119.711 736.745 117.022V37.5826Z" fill="#013369"/>
<mask id="mask1_111_27468" style="mask-type:luminance" maskUnits="userSpaceOnUse" x="650" y="75" width="82" height="65">
<path d="M731.391 75.4167H650.846V139.144H731.391V75.4167Z" fill="white"/>
</mask>
<g mask="url(#mask1_111_27468)">
<path d="M691.118 139.144C691.118 139.144 697.302 131.476 713.467 129.013C731.944 126.147 731.391 117.474 731.391 117.047V75.4418H650.846V117.047C650.846 117.499 650.318 126.172 668.77 129.013C684.909 131.502 691.118 139.144 691.118 139.144Z" fill="white"/>
</g>
<path d="M672.339 105.835V86.0253L669.825 84.6426V79.5143H681.138V84.6426L678.8 86.0253V126.398L672.741 124.588L664.018 98.7958V115.815L666.783 117.927V123.181L654.641 120.088V115.614L657.407 114.533V86.0504L654.566 84.6426V79.5143H663.767L672.339 105.835Z" fill="#D50A0A"/>
<path d="M693.155 123.935L695.568 126.826V131.954L683.552 127.454V123.105L686.216 122.024V86.0253L683.552 84.6929V79.5143H704.442V89.9469H699.842L698.459 85.6733H693.155V97.74H697.127L698.711 95.4524H701.903V106.187H698.711L697.202 104.025H693.155V123.935Z" fill="#D50A0A"/>
<path d="M706.427 125.745V120.616L709.394 118.153V86.0253L706.855 84.6929V79.5143H718.871V84.6929L716.533 86.0253V116.167L721.686 114.759L722.692 106.891H727.644V120.063L706.427 125.745Z" fill="#D50A0A"/>
<path d="M652.932 66.8946L649.287 64.1544H653.736L655.219 59.9562L656.677 64.1544H661.127L657.482 66.8946L658.839 71.1682L655.219 68.6292L651.599 71.1682L652.932 66.8946Z" fill="white"/>
<path d="M668.719 66.8946L665.099 64.1544H669.549L671.007 59.9562L672.49 64.1544H676.94L673.294 66.8946L674.627 71.1682L671.007 68.6292L667.387 71.1682L668.719 66.8946Z" fill="white"/>
<path d="M652.932 52.6408L649.287 49.9007H653.736L655.219 45.6774L656.677 49.9007H661.127L657.482 52.6408L658.839 56.9144L655.219 54.3754L651.599 56.9144L652.932 52.6408Z" fill="white"/>
<path d="M668.719 52.6408L665.099 49.9007H669.549L671.007 45.6774L672.49 49.9007H676.94L673.294 52.6408L674.627 56.9144L671.007 54.3754L667.387 56.9144L668.719 52.6408Z" fill="white"/>
<path d="M730.636 71.1682L726.991 68.6292L723.371 71.1682L724.729 66.8946L721.083 64.1544H725.533L726.991 59.9562L728.474 64.1544H732.924L729.279 66.8946L730.636 71.1682Z" fill="white"/>
<path d="M714.824 71.1682L711.204 68.6292L707.584 71.1682L708.916 66.8946L705.271 64.1544H709.721L711.204 59.9562L712.662 64.1544H717.111L713.466 66.8946L714.824 71.1682Z" fill="white"/>
<path d="M730.636 56.9144L726.991 54.3754L723.371 56.9144L724.729 52.6408L721.083 49.9007H725.533L726.991 45.6774L728.474 49.9007H732.924L729.279 52.6408L730.636 56.9144Z" fill="white"/>
<path d="M714.824 56.9144L711.204 54.3754L707.584 56.9144L708.916 52.6408L705.271 49.9007H709.721L711.204 45.6774L712.662 49.9007H717.111L713.466 52.6408L714.824 56.9144Z" fill="white"/>
<path d="M701.148 41.2026C701.148 41.2026 699.263 42.1831 696.623 44.7724C697.202 45.0992 697.88 45.5768 698.258 45.9036C697.855 46.2556 697.453 46.6326 697.076 46.9846C695.367 45.5768 693.582 44.8478 692.199 44.521C692.652 44.1942 693.154 43.8674 693.632 43.5657C694.361 43.7668 695.09 44.0433 695.09 44.0433C698.056 41.7808 700.621 40.8004 700.621 40.8004C700.621 40.8004 700.319 40.6496 699.54 40.6747C687.85 40.8256 677.091 49.5488 679.127 64.4813C679.328 66.065 679.956 68.956 680.736 70.2129C680.987 67.7242 681.942 62.2188 684.708 56.3363C683.752 55.9843 682.948 55.8586 682.948 55.8586C683.224 55.2553 683.627 54.5011 683.627 54.5011C685.688 54.8782 687.498 55.7581 689.057 56.9899C688.68 57.5932 688.428 57.9954 688.252 58.2971C687.699 57.8697 687.146 57.4926 686.543 57.1658C683.426 62.5958 681.967 67.7493 681.389 70.4392C681.414 70.6151 681.741 70.6906 682.018 70.6654C694.839 69.0063 700.822 62.4701 702.657 55.381C703.864 50.7303 703.461 45.8785 701.852 41.9065C701.752 41.63 701.526 41.1775 701.148 41.2026ZM690.138 55.3056C688.478 53.8978 686.543 53.0682 684.632 52.7163C684.632 52.7163 685.21 51.761 685.537 51.2582C687.875 51.7107 689.761 52.8168 691.093 53.9229C690.741 54.4006 690.439 54.8782 690.138 55.3056ZM692.249 52.3392C690.691 51.032 688.83 50.0767 686.694 49.6493C687.02 49.222 687.397 48.7946 687.749 48.3672C689.383 48.6438 691.47 49.4985 693.28 51.0068C692.928 51.4342 692.551 51.8867 692.224 52.3392M694.562 49.5236C692.953 48.1913 691.118 47.3114 689.182 46.9092C689.66 46.4567 690.138 46.1047 690.565 45.7276C692.978 46.3058 694.612 47.3868 695.718 48.317C695.316 48.7192 694.939 49.1214 694.562 49.5236Z" fill="white"/>
</g>
</g>
</g>
<defs>
<clipPath id="clip0_111_27468">
<rect width="882" height="181" fill="white"/>
</clipPath>
<clipPath id="clip1_111_27468">
<rect width="881.369" height="181" fill="white"/>
</clipPath>
</defs>
</svg>
