<svg width="280" height="158" viewBox="0 0 280 158" fill="none" xmlns="http://www.w3.org/2000/svg">
<g clip-path="url(#clip0_2483_2250)">
<path d="M23.0514 106.564L229.222 112.534L240.083 144.45L37.4407 149.165L23.0514 106.564Z" fill="#12FFFF"/>
<path d="M69 133.48L67.9794 137H59V120H62.736V133.48H68.9906H69Z" fill="#044040"/>
<path d="M75 137H71V120H75V137Z" fill="#044040"/>
<path d="M81.6979 127.524H86.3874V130.926H81.6979V137H78V120H86.962L88 123.52H81.7071V127.524H81.6979Z" fill="#044040"/>
<path d="M100 133.598L99.087 137H90V120H98.7457L99.6587 123.402H93.413V126.676H97.7304V130.078H93.413V133.598H100Z" fill="#044040"/>
<path d="M121.803 136.63C121.803 136.63 121.039 135.745 119.979 134.509C119.631 134.833 119.31 135.114 119.049 135.35C116.825 137.427 112.411 138.014 110.604 134.299C109.309 131.618 110.022 128.727 113.471 127.158C110.925 124.942 112.15 120 116.503 120C117.911 120 120.995 120.727 120.995 124.083C120.995 125.809 119.675 126.974 118.267 127.859C118.849 128.534 119.536 129.279 120.231 130.102L122.568 128.069L124.514 130.286C124.514 130.286 123.472 131.241 122.273 132.389C124.262 134.649 126 136.638 126 136.638H121.812L121.803 136.63ZM118.059 132.293C117.198 131.311 116.347 130.312 115.582 129.471C114.288 130.102 112.871 131.478 113.897 132.994C114.774 134.325 116.651 133.852 118.059 132.293ZM115.278 124.03C115.278 124.661 115.86 125.239 116.295 125.66C116.338 125.634 116.408 125.59 116.46 125.564C116.877 125.353 117.85 124.819 117.85 123.908C117.85 122.996 117.251 122.558 116.512 122.558C116.512 122.558 115.287 122.558 115.287 124.03H115.278Z" fill="#044040"/>
<path d="M150 128.5C150 133.188 146.244 137 141.625 137H136V120H141.625C146.244 120 150 123.812 150 128.5ZM146.226 128.5C146.226 125.49 143.809 123.283 140.843 123.283H139.603V133.726H140.843C143.809 133.726 146.226 131.519 146.226 128.509V128.5Z" fill="#044040"/>
<path d="M162 133.598L161.087 137H152V120H160.746L161.659 123.402H155.413V126.676H159.73V130.078H155.413V133.598H162Z" fill="#044040"/>
<path d="M174.148 133.598H168.852L167.812 137H164L169.749 120H173.251L179 137H175.188L174.148 133.598ZM173.242 130.689L171.491 125.034L169.741 130.689H173.242Z" fill="#044040"/>
<path d="M189 123.52H184.882V137H181.356V123.52H177L177.937 120H188.991V123.52H189Z" fill="#044040"/>
<path d="M205 120V137H201.551V129.905H195.449V137H192V120H195.449V126.749H201.551V120H205Z" fill="#044040"/>
<path d="M266.063 112.529H229.222L240.083 144.444L266.063 146.331V112.529Z" fill="white"/>
<path d="M245.142 137.212C245.744 136.446 246.358 135.693 246.971 134.933C247.035 134.852 247.105 134.77 247.175 134.682C247.006 134.647 246.866 134.635 246.737 134.594C246.457 134.501 246.171 134.454 246.171 134.454C246.171 134.454 247.286 133.07 247.695 132.62C247.853 132.45 248.034 132.252 248.192 132.077L240.872 127.905C240.843 128.227 240.825 128.571 240.825 128.898C240.825 132.339 242.537 135.377 245.154 137.212H245.142Z" fill="#044040"/>
<path d="M253.456 135.471C253.479 135.599 253.514 135.728 253.567 135.862C253.76 136.382 254.017 136.931 254.373 137.597C254.461 137.761 254.683 137.889 254.969 137.936C255.284 137.989 255.442 137.948 255.635 137.808C254.396 135.43 255.308 137.183 254.636 135.891L253.701 135.336C253.619 135.377 253.538 135.424 253.45 135.465L253.456 135.471Z" fill="#044040"/>
<path d="M250.961 139.046C251.3 139.046 251.633 139.029 251.966 139L252.013 138.941C252.118 138.801 252.544 138.404 252.784 138.269C252.895 138.205 252.977 138.17 253.047 138.141C253.129 138.106 253.205 138.071 253.321 137.995C253.468 137.901 253.432 137.796 253.368 137.697C253.181 137.399 253 137.095 252.825 136.803C252.679 136.552 252.521 136.3 252.369 136.043C251.843 136.324 251.452 136.534 251.434 136.546C251.061 136.809 248.706 138.386 248.706 138.386L248.601 137.954C248.502 138.036 248.28 138.234 248.18 138.31C248.075 138.398 247.964 138.48 247.853 138.561C248.835 138.877 249.875 139.046 250.961 139.046Z" fill="#044040"/>
<path d="M256.815 137.188L256.248 136.855C256.348 137.031 256.447 137.2 256.552 137.37C256.64 137.311 256.727 137.253 256.809 137.194L256.815 137.188Z" fill="#044040"/>
<path d="M240.86 127.923L248.157 132.1C248.706 131.498 249.331 130.815 249.886 130.219L247.286 119.434C243.84 120.819 241.222 124.079 240.86 127.923Z" fill="#097F7F"/>
<path d="M256.459 124.33L256.219 123.857L255.723 123.722L255.249 123.962L255.489 124.435L255.986 124.569C256.026 124.581 256.459 124.33 256.459 124.33Z" fill="#044040"/>
<path d="M250.961 118.745C249.629 118.745 248.35 119.002 247.187 119.469L249.816 130.295C250.505 129.547 251.207 128.805 251.913 128.069C252.474 127.485 253.134 126.994 253.748 126.456C253.8 126.41 253.806 126.316 253.824 126.24C253.911 125.895 253.824 125.516 253.602 125.27C253.187 124.809 252.936 124.745 252.352 124.698C251.253 124.604 250.015 124.879 250.015 124.879C250.015 124.879 250.43 123.938 250.914 123.623C251.61 123.173 252.13 123.103 252.924 123.056C253.281 123.033 253.561 123.074 253.923 123.08C254.028 123.08 254.139 123.08 254.233 123.033C255.699 122.373 257.265 122.799 258.194 124.125C258.62 124.727 258.86 125.399 258.965 126.123C259.088 126.982 259.199 127.847 259.374 128.7C259.403 128.857 259.438 129.085 259.45 129.237L261.103 128.437C260.829 123.08 256.394 118.739 250.967 118.739L250.961 118.745Z" fill="#044040"/>
<path d="M257.639 133.081C257.399 133.262 256.581 133.753 255.927 134.133C255.676 134.495 255.588 134.869 255.652 135.272C255.781 136.038 256.143 136.704 256.558 137.364C259.304 135.547 261.115 132.433 261.115 128.893C261.115 128.711 261.115 128.536 261.103 128.361L259.444 129.173C259.613 130.768 258.953 132.071 257.645 133.081H257.639Z" fill="#0DBFBF"/>
<path d="M254.209 135.074C253.999 135.185 253.76 135.307 253.52 135.436L254.858 136.324C254.782 136.178 254.607 135.839 254.204 135.074H254.209Z" fill="#0DBFBF"/>
<path d="M18.5588 93.1558L43.0025 55.462L28.5898 12.6971L4.07013 50.5779L18.5588 93.1558Z" fill="#C7FFBD"/>
<path d="M246.749 71.2534H227.207L246.749 43.8419V71.2534ZM266.063 71.2534V12.5335H247.929L216.025 52.9849C220.43 56.35 223.883 61.5379 223.883 70.0383C223.883 77.3352 221.219 83.522 216.177 87.9329C214.833 89.1072 213.343 90.1237 211.725 90.9942H246.72V105.828H266.063V90.9942H275.44V71.2476H266.063V71.2534ZM217.813 28.9034H218.566V26.2569H219.559V25.5908H216.825V26.2569H217.807V28.9034H217.813ZM220.962 26.66L221.879 28.1147H221.937L222.849 26.6658V28.9034H223.561V25.5908H222.79L221.92 26.993L221.049 25.5908H220.249V28.9092H220.962V26.6658V26.66ZM71.7461 43.2343C64.9282 41.1252 59.0451 39.3083 59.0451 33.7991C59.0451 29.0611 64.6127 26.8528 68.3868 26.8528C74.2115 26.8528 77.746 28.7865 81.5376 31.9063L82.1685 32.4204L91.7556 20.2511L91.1071 19.7603C84.4703 14.7886 75.9816 11.9318 67.8084 11.9318C54.3947 11.9318 40.1281 20.1109 40.1281 35.2772C40.1281 51.5769 51.9469 55.3568 62.3635 58.6986C69.193 60.8835 75.0878 62.7647 75.0878 68.1921C75.0878 73.6195 68.3225 75.7344 64.046 75.7344C53.9566 75.7344 46.759 68.4842 44.5156 66.3518L35.0396 80.0109C43.3647 86.8813 50.2818 90.1763 56.9828 91.4441C59.53 91.8764 62.159 92.1101 64.8464 92.1101C73.008 92.1101 80.3165 89.8725 85.4285 85.8122C91.037 81.3663 93.999 74.7996 93.999 66.8309C93.999 50.1047 82.1744 46.4592 71.7402 43.2401M202.226 49.9528C196.57 48.2118 193.106 46.9791 193.106 43.7893C193.106 41.1311 196.67 39.653 199.129 39.653C203.663 39.653 206.239 41.1778 209.68 44.1749L210.288 44.6948L219.653 32.806L219.074 32.3327C213.402 27.6707 205.965 25.0066 198.685 25.0066C187.34 25.0066 175.287 31.9939 175.287 44.9519C175.287 58.9206 186.06 62.3733 193.936 64.8854C199.608 66.7082 203.084 67.976 203.084 71.1132C203.084 74.7179 198.113 75.8863 195.7 75.8863C191.108 75.8863 187.258 74.2505 184.588 71.1658L183.986 70.4706L177.811 78.34L168.072 25.8421H152.777L146.649 52.3481L139.954 18.7672H124.998L112.875 90.9884H130.501L134.053 67.8766L138.195 90.9884H154.559L158.935 67.6897L161.909 90.9884H180.306L179.523 87.5765L179.675 87.6408C184.495 90.1646 190.214 91.52 196.325 91.52C211.252 91.52 220.891 83.0839 220.891 70.0266C220.891 55.7074 210.101 52.3773 202.226 49.9411M112.11 25.8654V90.9942H93.5959V80.7704C95.8334 76.7626 96.996 72.0597 96.996 66.8251C96.996 61.0705 95.6932 56.6713 93.5959 53.2361V25.8654H112.11ZM116.976 23.1079C118.659 23.1079 120.295 22.4886 121.907 21.3027L120.19 18.8723C119.021 19.6669 118.005 20.0875 117.128 20.0875C116.445 20.0875 115.849 19.8772 115.305 19.4156L122.31 14.8996C120.943 12.7672 119.284 11.7332 117.122 11.7332C113.594 11.7332 111.274 14.1343 111.274 17.4176C111.274 20.7418 113.693 23.1079 116.976 23.1079ZM117.187 14.4907C117.631 14.4907 118.034 14.6075 118.408 14.8237L114.546 17.3066V17.1372C114.546 15.5773 115.674 14.4907 117.187 14.4907ZM101.348 22.9969H104.515V16.4186C104.515 15.1859 105.14 14.514 106.133 14.514C106.945 14.514 107.319 15.0165 107.319 16.0622V22.9911H110.515V15.0749C110.515 12.9483 109.189 11.6923 107.243 11.6923C106.046 11.6923 105.035 12.1772 104.223 13.0769V8H101.354V22.9969H101.348ZM97.1946 23.0028H93.6543V11.6514H89.8744L90.8442 8.30964H100.618V11.6514H97.2005V23.0086L97.1946 23.0028Z" fill="white"/>
<path d="M43.0726 55.4561L42.2138 56.7823L42.1729 56.7589L30.7806 60.4746L33.1175 54.2176L43.0726 55.4561Z" fill="#76FF83"/>
<path d="M42.2138 56.7823L38.06 63.197L38.0074 63.162L27.0358 70.529L30.7806 60.4746L42.1729 56.7589L42.2138 56.7823Z" fill="#C7FFBD"/>
<path d="M18.5412 93.3019L27.0357 70.529L38.1418 63.0685L18.5412 93.3019Z" fill="#5EEA03"/>
<path d="M35.5186 33.1039L37.4816 38.9344L32.0309 44.2508L31.1896 36.4982C32.6852 35.4758 34.1399 34.3425 35.5186 33.1039Z" fill="#5EEA03"/>
<path d="M32.0308 44.245L32.1944 44.3735L33.3103 54.0014L33.1175 54.2176L23.0923 52.9615L32.0308 44.245Z" fill="#35BA2A"/>
<path d="M28.5839 12.5861L35.5186 33.1039C34.1398 34.3425 32.6851 35.47 31.1895 36.4982L28.5839 12.592V12.5861Z" fill="#76FF83"/>
<path d="M16.9229 78.5679L18.5412 93.3019L14.4108 81.1676L16.7593 78.6964L16.9229 78.5679Z" fill="#5EEA03"/>
<path d="M30.7806 60.4746L27.0358 70.529L27.0007 70.5524L26.7846 70.9263L17.1449 78.5679H16.9229L16.7243 78.4218L15.4156 66.2584L15.5383 65.9429L15.7311 65.6917L30.582 60.3987L30.7806 60.4746Z" fill="#258402"/>
<path d="M15.5383 65.9429L16.9229 78.5679L16.7593 78.6964L14.4108 81.1676L9.76624 67.5203L9.90061 67.3684C9.90061 67.3684 13.4585 66.3986 15.3981 65.8085C15.404 65.8085 15.5383 65.9429 15.5442 65.9429H15.5383Z" fill="#35BA2A"/>
<path d="M27.0007 70.5524L27.0357 70.529L18.5412 93.3019L16.9229 78.5679L27.0007 70.5524Z" fill="#134401"/>
<path d="M13.9902 51.8281L15.5383 65.9429C15.5383 65.9429 15.5208 65.9429 15.515 65.9429C12.4303 66.8776 10.1285 67.4327 9.76625 67.5144L4 50.5838L4.222 50.426L13.698 51.6237L13.996 51.834L13.9902 51.8281Z" fill="#4E801A"/>
<path d="M37.4816 38.9286L43.0726 55.4562L33.1175 54.2176L32.0308 44.245L37.4816 38.9286Z" fill="#4E801A"/>
<path d="M33.1175 54.2176L30.7865 60.4746H30.7631C30.7631 60.4746 18.9327 64.9263 15.5384 65.9487L13.9902 51.834L23.2267 52.9849L33.1117 54.2176H33.1175Z" fill="#5EEA03"/>
<path d="M6.72833 46.3598L7.08471 46.5059L16.6601 43.947C16.6601 43.947 16.9288 43.5906 17.034 43.5497C17.0456 43.5497 17.0573 43.5381 17.069 43.5381L28.584 12.5861L6.72833 46.3598Z" fill="#35BA2A"/>
<path d="M17.0398 43.5498C11.1625 45.6354 6.73415 46.3599 6.73415 46.3599L4 50.5838L13.9902 51.834L17.0748 43.5439C17.0748 43.5439 17.0515 43.5556 17.0398 43.5556V43.5498Z" fill="#134401"/>
<path d="M28.584 12.5861L17.0748 43.5381C21.3864 42.0074 26.4808 39.7523 31.1896 36.4982L28.584 12.592V12.5861Z" fill="#C7FFBD"/>
<path d="M31.1896 36.4924C26.4808 39.7465 21.3864 42.0016 17.0749 43.5322L13.9902 51.8223L23.0865 52.9557L32.025 44.2391L31.1837 36.4865L31.1896 36.4924Z" fill="#F6F7F5"/>
</g>
<defs>
<clipPath id="clip0_2483_2250">
<rect width="271.44" height="141.165" fill="white" transform="translate(4 8)"/>
</clipPath>
</defs>
</svg>
